<?xml version="1.0" encoding="UTF-8"?> <svg xmlns="http://www.w3.org/2000/svg" xmlns:xlink="http://www.w3.org/1999/xlink" viewBox="0 0 173.018 32.001"><defs><style>.a{clip-path:url(#a);}</style><clipPath id="a"><path d="M5,3.8H178.018v32H5Z" transform="translate(-5 -3.8)"></path></clipPath></defs><g transform="translate(-30 -32)"><path d="M11.4,23H30.6v6.4H11.4ZM5,3.8v6.4H30.6v6.4H5V35.8H37V3.8H5Z" transform="translate(25 28.2)"></path><g class="a" transform="translate(30 32)"><path d="M154.1,18.414c0-2.56-.213-2.987-3.627-3.84-2.56-.64-2.56-.64-2.56-2.56,0-1.493.427-1.92,2.56-1.92a14.515,14.515,0,0,1,3.2.427l.213-1.28a18.672,18.672,0,0,0-3.413-.427c-3.2,0-4.053,1.067-4.053,3.2,0,2.56.427,3.2,3.413,3.84,2.56.64,2.56.853,2.56,2.56,0,1.493-.427,1.92-2.56,1.92a11.833,11.833,0,0,1-3.627-.64L146,20.974a11.158,11.158,0,0,0,3.84.64c3.627.213,4.267-1.067,4.267-3.2m-20.054,3.2h7.467V20.12h-5.973V15.854h5.547V14.36h-5.547V10.307h5.973V9.027h-7.467Zm-12.16-11.307h2.773c1.92,0,2.56.853,2.56,2.347v5.333c0,1.493-.64,2.347-2.56,2.347h-2.773Zm-1.707-1.28v12.8h4.48c3.2,0,4.053-1.707,4.053-3.627V12.653c0-2.133-1.067-3.627-4.053-3.627h-4.48ZM107.6,21.614h7.467V20.12h-5.973V15.854h5.547V14.36h-5.547V10.307h5.973V9.027H107.6V21.614ZM94.8,20.12h2.133l3.2-8.747.213,10.454h1.493l-.427-12.8H99.275L95.648,18.84,92.022,9.027H89.888l-.427,12.8h1.493l.213-10.454ZM84.341,9.027H82.635v12.8h1.707ZM77.088,21.614V8.813H75.381V14.36h-5.76V9.027H67.914v12.8h1.707V15.854h5.76v5.76Zm-19.84-8.96c0-1.707.64-2.347,2.773-2.347a15.113,15.113,0,0,1,2.987.213l.213-1.493a16.468,16.468,0,0,0-3.2-.427c-3.2,0-4.48,1.28-4.48,3.84v5.547c0,2.347,1.28,3.84,4.48,3.84a16.468,16.468,0,0,0,3.2-.427l-.213-1.28a15.113,15.113,0,0,1-2.987.213c-2.133,0-2.773-.64-2.773-2.347Zm-8.96-.64v1.92c0,1.28-.64,1.707-2.133,1.707h-3.2V10.307h3.2c1.707,0,2.133.427,2.133,1.707m1.067,9.6h1.92l-3.413-4.907a2.791,2.791,0,0,0,2.133-2.987V11.8c0-1.92-.853-3.2-3.627-3.2H41.46V21.4h1.493V16.707h3.2l3.2,4.907ZM33.78,17.134H29.3l2.347-7.04ZM32.5,9.027H30.367L26.1,21.827h1.707l1.067-2.987h5.333l1.067,2.987H36.98Z" transform="translate(18.914 1.64)"></path></g></g></svg> 